<mxfile host="app.diagrams.net" modified="2022-05-07T13:47:38.921Z" agent="5.0 (Windows NT 10.0; Win64; x64) AppleWebKit/537.36 (KHTML, like Gecko) Chrome/101.0.4951.41 Safari/537.36 Edg/101.0.1210.32" etag="rj_I2w8oqvcMwFaiH07Y" version="17.5.0" type="github">
  <diagram id="kgpKYQtTHZ0yAKxKKP6v" name="Page-1">
    <mxGraphModel dx="1178" dy="637" grid="1" gridSize="10" guides="1" tooltips="1" connect="1" arrows="1" fold="1" page="1" pageScale="1" pageWidth="850" pageHeight="1100" math="0" shadow="0">
      <root>
        <mxCell id="0" />
        <mxCell id="1" parent="0" />
        <mxCell id="3nuBFxr9cyL0pnOWT2aG-1" value="Node0" style="shape=umlLifeline;perimeter=lifelinePerimeter;container=1;collapsible=0;recursiveResize=0;rounded=0;shadow=0;strokeWidth=1;" parent="1" vertex="1">
          <mxGeometry x="120" y="80" width="100" height="300" as="geometry" />
        </mxCell>
        <mxCell id="_FZEt-mA3UDAFmQw38fu-1" style="edgeStyle=none;rounded=0;orthogonalLoop=1;jettySize=auto;html=1;" edge="1" parent="3nuBFxr9cyL0pnOWT2aG-1" source="3nuBFxr9cyL0pnOWT2aG-2" target="3nuBFxr9cyL0pnOWT2aG-1">
          <mxGeometry relative="1" as="geometry" />
        </mxCell>
        <mxCell id="3nuBFxr9cyL0pnOWT2aG-2" value="" style="points=[];perimeter=orthogonalPerimeter;rounded=0;shadow=0;strokeWidth=1;" parent="3nuBFxr9cyL0pnOWT2aG-1" vertex="1">
          <mxGeometry x="45" y="70" width="10" height="190" as="geometry" />
        </mxCell>
        <mxCell id="_FZEt-mA3UDAFmQw38fu-2" value="T=2.000000" style="text;html=1;align=center;verticalAlign=middle;resizable=0;points=[];autosize=1;strokeColor=none;fillColor=none;" vertex="1" parent="3nuBFxr9cyL0pnOWT2aG-1">
          <mxGeometry x="-50" y="70" width="80" height="20" as="geometry" />
        </mxCell>
        <mxCell id="_FZEt-mA3UDAFmQw38fu-4" value="T=2.007372" style="text;html=1;align=center;verticalAlign=middle;resizable=0;points=[];autosize=1;strokeColor=none;fillColor=none;" vertex="1" parent="3nuBFxr9cyL0pnOWT2aG-1">
          <mxGeometry x="-50" y="210" width="80" height="20" as="geometry" />
        </mxCell>
        <mxCell id="3nuBFxr9cyL0pnOWT2aG-5" value="Node1" style="shape=umlLifeline;perimeter=lifelinePerimeter;container=1;collapsible=0;recursiveResize=0;rounded=0;shadow=0;strokeWidth=1;" parent="1" vertex="1">
          <mxGeometry x="300" y="80" width="100" height="300" as="geometry" />
        </mxCell>
        <mxCell id="3nuBFxr9cyL0pnOWT2aG-6" value="" style="points=[];perimeter=orthogonalPerimeter;rounded=0;shadow=0;strokeWidth=1;" parent="3nuBFxr9cyL0pnOWT2aG-5" vertex="1">
          <mxGeometry x="45" y="80" width="10" height="180" as="geometry" />
        </mxCell>
        <mxCell id="3nuBFxr9cyL0pnOWT2aG-8" value="send" style="verticalAlign=bottom;endArrow=block;shadow=0;strokeWidth=1;exitX=0.967;exitY=0.063;exitDx=0;exitDy=0;exitPerimeter=0;entryX=0.014;entryY=0.373;entryDx=0;entryDy=0;entryPerimeter=0;" parent="1" source="3nuBFxr9cyL0pnOWT2aG-2" target="3nuBFxr9cyL0pnOWT2aG-6" edge="1">
          <mxGeometry x="-0.1583" y="10" relative="1" as="geometry">
            <mxPoint x="180" y="170" as="sourcePoint" />
            <mxPoint x="340" y="220" as="targetPoint" />
            <mxPoint as="offset" />
          </mxGeometry>
        </mxCell>
        <mxCell id="3nuBFxr9cyL0pnOWT2aG-9" value="echo" style="verticalAlign=bottom;endArrow=block;shadow=0;strokeWidth=1;entryX=0.919;entryY=0.744;entryDx=0;entryDy=0;entryPerimeter=0;exitX=-0.129;exitY=0.389;exitDx=0;exitDy=0;exitPerimeter=0;" parent="1" source="3nuBFxr9cyL0pnOWT2aG-6" target="3nuBFxr9cyL0pnOWT2aG-2" edge="1">
          <mxGeometry x="0.0908" y="-4" relative="1" as="geometry">
            <mxPoint x="240" y="200" as="sourcePoint" />
            <mxPoint x="180" y="290" as="targetPoint" />
            <mxPoint as="offset" />
          </mxGeometry>
        </mxCell>
        <mxCell id="_FZEt-mA3UDAFmQw38fu-3" value="T=2.003686" style="text;html=1;align=center;verticalAlign=middle;resizable=0;points=[];autosize=1;strokeColor=none;fillColor=none;" vertex="1" parent="1">
          <mxGeometry x="360" y="220" width="80" height="20" as="geometry" />
        </mxCell>
        <mxCell id="_FZEt-mA3UDAFmQw38fu-5" value="10.1.1.1:49153" style="text;html=1;align=center;verticalAlign=middle;resizable=0;points=[];autosize=1;strokeColor=none;fillColor=none;" vertex="1" parent="1">
          <mxGeometry x="120" y="50" width="100" height="20" as="geometry" />
        </mxCell>
        <mxCell id="_FZEt-mA3UDAFmQw38fu-6" value="10.1.1.2:9" style="text;html=1;align=center;verticalAlign=middle;resizable=0;points=[];autosize=1;strokeColor=none;fillColor=none;" vertex="1" parent="1">
          <mxGeometry x="315" y="50" width="70" height="20" as="geometry" />
        </mxCell>
        <mxCell id="_FZEt-mA3UDAFmQw38fu-7" value="&lt;h1&gt;Compute timestamp&lt;/h1&gt;&lt;div&gt;&amp;nbsp;&lt;img src=&quot;data:image/png;base64,iVBORw0KGgoAAAANSUhEUgAAAiIAAAAiCAIAAADtSSVUAAAACXBIWXMAAA7EAAAOxAGVKw4bAAAAEXRFWHRTb2Z0d2FyZQBTbmlwYXN0ZV0Xzt0AABoDSURBVHic7Z15fJvFmcef99VtnbYlWbIsn/GV+IoT27lPckAICWQpBUoCtE2hSwt02263dLfblm1pS9ulZdvSQjYECGcIWQoJOU0OJ07ixHYcX/Ily7Ik677v990/ZCe2o/eV5EhOaN/vH/k4o3mfeWbe552Zd2akH1KzaDVQUFBQUFCkBvSmLSDyzc/v/sFaYRKcSSlfFD+TBcKu/NaC9Q30W+1HLKL4Kd3wfPm8zFvmEbBrn37tra8W3fZN93fJLYjbggd/Wf/Yr+t3PJMtQlJZTqriat6TW+5dxU221SkU7vifD79bmxZ3+jSSUGWP5vJpbDQQX2a06KEXn5O+u/O/m0PjKUuf3fOtOua0bMHWP3/zV41OAiOrvv/GEzUMwHEs6DYPXzn+3p6POqx4iv0kgzNHXn+nVCFnoL6Adcja8TeN2hLjEvFdlRszRva+acUmUnjLy++7h49iWMjlN/eZOw7rNOaYlSIhbO0y40YsdkZSaMX52x4XI5f79r1nm9wUN/pPnp5qPxMvlwhEtmHn2tG3d/RPrq7ksafSzv5pGNswd4Wl/7VzPhwgY87Wf6uW0/Cw3+/QjqlOdLZedYdjGs+t+PI3uc3PNQ/EzMrL3/TjBbl0wDEs5HYZrqjOfjxk8iXPPlG9ZgBJ/M96PLCrnq4o6un86JAnUhdElr352xmalzsujxJdMvj2vw4yaosfWDHTMuMi3rgCtOCRzRtq6eMjHubrfOXTz3tx/oqVD96bYf7b0Q+POXEA0do1X7pbaDxweH+jO4lOEsXDwIEP+/c8svWdy3tHpoQIUfo0bn6Ywe2t+15tnfn1l9/40b9+iADQ5n7pPx6i7/vJ3vYgAO41uUgLdTT96WcfqnB2VvXmRx985gnnD144aiJ/RG7WT2Iys1bukOFn1Eff94Y5LHG5iMtFwDKTBxa3GT/fpXfyucplilVPsE/+fkBNNNTGthUcOTo0MtOrJ0Ayy/ieFhNWLJTQbLr4uq7ESI6fyQMtvvvu4tY3Gq1x5MU93W+caTOzJfPm1G1fIdp7/FibP5m+YL7evada1MDMlFbfW3PnVt877+iDySwgKSQv/gFuPh58o73+6gI+F/G4cAAAdj5f6HSc08/cYnJIJK4Ad1+4cKjRjgEAYL6Jng23+ziV2cLjPTbgF1QyvfabmYUmiK3pk5Ynn9pU/O4rveF40qcyZZjZ+O+7V459NqpcPE/M8vQf2fXKvg4HDgDAyl39yFfvbShIRxyDF/bvev3YkA8AgF7/9K6nFzMRCLb/9akXjtkn7Kz9we61ug86s1ctKxKD7tTul3adM+FI9pbnX3gw8sb47J534Nori2lYbQIAutiN4QyjWq2+/iARlAsAYY95dHQ0DKMjuwTz/vDVmlLOUZMntX4SNSGrUChxGA8etpgwAPCaB23XPkJEwpotypJiNjPk15/XnD1kc2EgXD136108FACgeEc1AGAj77UeuRACAAiF3AavSec1DfpZ3y2tbtANH/XiBHYyN1RsVOj37Rqf4bJqi//pDt/hFzVGDMn7yoLV1SgCmPaD1sNT3sdo4iW5dctEYhEaMDr7Dg22dAWJ/AQAQNNySkD/oRHLLczJQXRqHIDQf7J6gWjFT/ICBzShBTklBUxw2lv+ouoxE/uJILzKvLuWijNZQcM59emDdg8OAJL1z0t0L3VeMQIAWrhjfpWu68Bhj4C4XMJ6EUMrWLNSfvXtVtJZzgQ45rc6LcMOy7DZxVm3aV3B5fZuCw6Cqsola7KzZBxmyDt2pbfpo0GjHxBp6X3fr5DSAAA2vJgDAOGui3v+ovZB9PyRAgJWp20MhzHHBbny/qVSMarXYQnbB5STu6G6oSErnRN29A+de//qUOyX/7ghiv/kxYNk/X9J7YcdwrpMiQixX1Kf2G9xR/qlwuxl22TZIsx6SW/IUkg6Oj496bf0OHxL+FKWweUDAFRayA2o9GYMAGHl3ZVbWcETiWiYzaX+fPj8OQ/poB093oieR3ISiiuAsNNlHrVPM4qbdWpUXiDpaYXsfFw/aM6TTHyEZCiWf7uoVEH3DA6efrtj2A4AUPnUllJzv02Wo8ig+YcHTr/dNRIpniksv29+bZWIi4bcemPb++c7tDHjwdtyrlO6fVnxq73d4XjSEWYalwkBtyeA3/A2Q8+bn3PsJ//yhzH+om/851OPab//0lkHMOd++TuPlnS9+os/9uBz7nni69950PC9/+3wA4TOv7T94d/LN//sF/Om+UTLrSs+9vMfPjGWvu7Zn23fcqHltfbg6IHnth9IZDGKsNwpBPwBDFh0Gkn+1PoZ9obDfG6WFDXpp4YFg1f7eGH2kKbxJYeHza+8v2CFu+vg5z77ic7XT8RaTAi6tINYcQGPDV4vgR3LVZtnaboizdTvAQBa9jy+r1NnxgAAV795cfdb7Mqn5smnWuUvnrN+A9q3v/fMUJAmyyhKZyAQxAns4wCIRKjguC5rPOEhtL6Mg6g9OACR/zHqhdDz12R2Heh+b1eIpRRwg2R+AsqdU+U6veuKlSte/HDREuOVoxcIOwTCconrRYKgvEoxdrV/em8QdjlDQRxwT9Dlj2YgrO8xhRaJZXywOBAmFzecutQy7PbRBeXbFm64x/3O+2OhsZ593+2JtqhFkH9yc/AyCsv5SDCSmKh9WtZdS9eWmJv2HBu1M+RrF6z+in//yyobHk+94oAo/pMaD5y8vLHPXmp1CqRrvpVb3WFt6sUhLX3RwzJ2y8DHZ328RQUrchFbBwAAprHrgvkyJTKgwgHlyvJw/d+cYQBAaCxwde7Tmkwhmlyy6IHiheYrZ1WJr87NQlwhvEVLHl1OR1yO4TNXTh83eiOf4a7BDmFdJX8I5HhHp6P82jCDSOoUhr1n3tWzirc13HG/893X1G4cAFDxXEHn7w8fNbOKHly5dpvzvddHvACCJfOX5jsaXz6v89IE+TIeEtMfAAC3SqWVV1emQ7cpjnQko/a+x5eiTa+/ccaETz8CgNnOH2zUBSFsOX+oyV25tJoLQC9btkjQ9tGbpwYMY4Nn9u5vTWtYVs4gbVPAbRcONY4GIGQ4f3EwLS9fPIOttXjKZWRWbLmziqbt7XfdMj9DXdqLvazaZ2q2/XPxkg1SReZ4m9JLs0oYpuYDJoMx4NSYLza60qvS+XEX4HOGED6TjRLawUetGic/t5gGAMAW5BaFNFfdpA8Nt3gp33Fi8EKr22ELWLv1F896cFI/eWVCvsYxFsJNfe60UqHgZjZIEcR1UdOuCoTCmHvINuYgzYyHNMdG1LqAo093qSUkqxFxEi9wRu1Pk8lkiMVgnt6Olvdf1/Zj+EBj7zuXo/bHuMvnRdhcHgKAm852XG4xGo0ep05/6YyJlZ8pJDtqQ5wfZc978t5v/Oa+nT9dXV8QGj4+ZMJI80eFlVXZQOvZ39oz4HKarb0f9+rkOQXieOsVG6L4j0Fi8RBUnzbZg4CZLcMjtIxsFgLALBPnYOZLh202q2/kyOjQtS2KoFM7iEoLOQgAIuZLOS7tQGT1ydP7iW6gz+OwBaxduu4BurSANZN+KdVxhTu7uk7uPffJy6dPnHaL1y9ev+LaQIA7OvRQWVJTCeoO9+TbFejoab7icBqNrQfVvjnKPP54fnebqtuIAeYdOKnxlymVaQAAXBEbzOaRUY/b6tRdVqkmbauQxANmMhoRqSKLNq0KROlT2mz6JQZjePyvMRNamyVGwZ4lYZtVo95IDp92xMyamyVAgGx/GrNbx9/4/IEAMFlMBCDRIOaRlIuI1v7wjTUACAJe7bk3//DpCA6iW+QnhH29b15RZ/EVxXxZmWzVCqlqd9d5VZgv5zDFmZteuD4zwyx+NgKOuArAxzcwAQjtYB51V+iOCiGjzYIXpcv9thPD5KbZ6enBMfX03oTQPjAVZWnWDmcAAIYcFkmmIl1nj3W0gbhCIbM27o4M99vGN4Fxh8GHzGVzUfAmOO+cUfsjDAYDQqHEN0DwSVaZyoLFm4vzc7kcJooggJnc5FughPkxf9/7py9pGZn15XNDPSfOj/csCdlHMoTpHF7xt++rvpaEuR08BIzJWjcjiP8YVyUWD0GPM5IXCwWBxkQBgCdmoSa7PTzug82MiyYc0ve6lsznpyEerIAnGLXpPJF0WuYiZd3ydHEmnU5DEMAdFrKukYiUxxVuutg7/mIwbPHw77inTpl+sityKWYcHULuqIPO94yYctIlDr1zot922hG5QBTxB3eZPePPkdXtQuRCEQIe3Ng6bN1Zc/+z2Zp+i75L06fyxHPOCULBEDAYN07co6bj5nNv/vrcxP+mxyeKotf/QiAyis5gyMcnP3YznQQTX4c7m//6832qYNhjNVo84Zj5iQ0lw08AwP0Gx4DBMXBaP3x/xarl6W0qEwBgfUPvvTLmnYlBhMOn466gFwM2oR3c3GEL7BDJWTZsniDc1W+MY4s+ah2j2+cJlLmotKBq+90AAAgNoITReW6mW9A4Hk7m7jUSz91KvP0xu90OXD4PgQT3V1E+m4P73S4c6JL6RyvF7RcO7DbYPBitqv7RzQiZr2T5cb/FYdHilgPtomcXLZ57vLEzmLB9ACQ8dvKnp66SvzDcHFHiP8ZhiITiYeq9iFrbyYneXrv1Tr6UZQwXcu09w5EzZ7SinNWb0tRvdx3v8QXCSN7DtXUJPPBT4m324gqzjrrwWnYaCuM7yriz9/8uecBgwxEl+aURtxFkfOaMIteiJDTUuf+/RhTlWdmlivqdxYUfHP+02RPbFI/PB2e3c7r/ROmTmfaCS8tSKiKHi+nyHBlm1JsxcI2N+TJzsseXLdjZOZl+41h8U/IoYBgGKC2eWQRpuWGXUaMd0eqvjzGz5ieTKxBwWUQrA2G3NYSwaQwEnHpvWMaTsKPnw3EAFCFcX2DwsgtQx4DTB2R2MI11JCDILRXmFuMjHTG3IX1WK0OSN32hgMg+s1gkcRgbf9dx4LcdB357tfFcQFwuYMXyP0a94gRhCSURG4ggi41bfC4MALAQoLTIxAihp/Gm1OPGcsnbnwBMPzjglecrEj2BScsqFdPHTHongFAk4dp6GnU2DwYAAimPNtlRHMcBQSfHFXn+cbfsnWdcBRuKMtCE7eMWhyUokOXFWD6+ETqHx0sjjHMirsf/hD/JiIdouIx+TMwRRqpKYwszJzWDzaG1cmV5XJkyONo7vmuSpkhja01Xu3yBMADCEk5dIMdCONBR2rS0aPE2q3GFiGQ8cPo8kx5td7+6p3/awXZEkMWLNAQq5gtxt338oB8ilPPH0yUCIea228b7Q8zt0FxUNb918siZUPbcjHjcouXk5fiHVNrpvQxR+uT4mXb/kbTaex9YqJRkV23ZtpR1pandBRDqPtPsqt768LICqSR/yUP31XjPn+ma6cQUsxrNkF9dI+EwGPQoz9MkEi13tvysvfcbX9+2MONaGlqqXHe/fE4ZL0PKkVYp6hdznP1ONw6hbkOvK73hyzKFnMmTcnMWK1esvb6E67EEQCHMSUdp9OvTDKDTuVkccXHm/EcKS1BLW7MXB1I7YZe6C1duyFGCXT0Uc0R1q844BasLFlZz+UKmqFg6vyENIbSPysr4+JBtxOCzG312o3ek0xnOF8knnq7o/hOnJwZCz12jyJUxBUWy+Qtoo5dtvohtMytnXhoNgF2cVZQ95YobyyVvfyL8V8+20Surc+NaTkFQVjo/I1dasrFhdQPSf2TAggO4XPYATz6HgwLQpfl1S4RTRgG7xwUi5dw0BmNi4YA0/zXcbUOajMKackbC9v36jnOBgq0La8oE/Ay+dG7hkofL5LH7/bR5m5544ivLFTFzEsV/hOTEQzQCPaYRNLN2nVAoZGevkedO3r7Dvdo+TFonzUIc2omjzF6zPyTmywQIACpcmFMqnzqkGDz2dNGcUnYan86kT/geLd5SHVdp8rr7y8oqJFm5mfkrF65ayjY0a2IeDGRWlNVXCPgSSc2duaxejXp8owphVpQ1VAr4UmntRiW9d0TjAQCQLK6oqcnMSGdz5fKiOSynwRXHMgiaXzOPe+Vi6/RvbhGlT4mfacNYaODUefaW517MZVg7P3v5f5vsAAD+q+/8ds/2xx547jfpYB+8uPd3b7dHbN7/y7e2KSPtNueVvV+HUPfr//KTg+RrvramfR/V7nzsN699mxFue4XsoDBxuYnmT62fuNFpossqt8l5fBRzeQ2XBo4f8+AAEHS1vNYX2pyz5Js5bAi5dc6hz68vJHjbtG1zCxZ/b8EqOq59/9oBXMnKZzJDHr+l19j4Z50mUiaZHdx41RZeLEUuDBuur68qtr6gSI/UN7f2sX+C8KD6wz8ZXDg4z/YdRnLrNpZsFaEBk7PvUyuxn3zlHNR46HoAhoedRpoypwAd6sKI/CdJjwahn4C5+zpolV+rzGAGDU0DZy9FZgverr8ZZF8qe6AhaO0Z0wzguZNsRSmXtP0JcZw62PzMV5cV7eon+yJABCSt7JE7igN+p3asZ8/Jy1f9AAB+XfO74jVb127fFPRajFeadDkNk81rLh6Rrdq2/vHtKN7dsucvah95/usV1He3VW1cm9/SqUrMPoT1n54+HKyq/9Kqeh74rHZdm8oV+yWfyWQimMvpjpmTMP4jbiclHqLisZ57i7N8W9E9yzDrJX2/hivGJu1l9zhYX5MgLSrTxF0MdY6cKShseKZmgS/o6jP0dApKJtfCYGg+xlv+UGU5Cx/dFzlOTRBvKY6rUBDPyKl7qCyNBUGrbejgmabTMW8Xbrw4Sl+77AEFzdM/cPSD4Yn2x8bOj9LvWP5ANupR9R/9QBNZ5wuGmMp19fPFbHrIa7zSfuyYLXY4oLmrlmc0vXF2+td+iNKnxg8y+TfNNv777oYL3/vpoaRtDlJQfPGgFX3j1R9n/HHnLy7E+s793zGs8q071+FH/nqge0Zbi7MNmjb/2TLRkdYT7Tf9KxApY9bjqvKpLYXtRw6cjL3vEhPW/Kfe+Y73R4+/djUYV/q0+EnFoikFxReZcP+bv3pTwxH/I/+mGZqlzHK0Nffe1mMMKq4SZ2fR6Qy6aL6skOsY6r99xxj4YseVhKvf/ct3p48lxOnT4od6m6GgoPhCgso3liyu5/LSwG+wd//fUFt/XAdz/2FI4tvMTYJQQgAUFBQUFKmDWjSjoKCgoEgh1DBDQUFBQZFCKFmzLwCS9c/PrZTEzpdsZkvuKSr/QHJnq5+/78nfbXvyxbULZMk2feuhZMpmg5uUHUs1lKxZvH6SkRRZMwAAhC5dolywVCQWoUGbW3NsqKllhkpTyYBM7omSOwOAJMmdnfjRhyfYyo3/WUKaKy4omTK43WTKELZi1dz5C7OkYhbidWrPd575TOecqXJTimTHUg0la3bzJE3WCclYXbJuBa76uK95FGPJhEUZTARu4TBDAiV3Rkaq5c5SCyVTFg9xxwPKzymhj51tb9N6MbGyfmvDRqxx3yFbks9e35zsWKqhZM1uH1mztPTqlZyxT9rPtwQBAHRu3eRS8uVrdsgU6WBtmZB1IpRpIpKBIpSHSlimiZI7I4VA7ixRebHo8mVZZduelalebGyL/IovQ7ryh/WM/YeOtifpNC8lU5bceAgbm18xjv89aG1WZm8qlfI/sznLF27fytF7Bdk8a+vn7sL1+Vxd96d/6TEGb4HsWKqhZM1uG1kzVCmUMdyXuqM9KSinaIHz3NtdrSLp0gcnZJ1IZJqiykARpScu00TJnU2QiNwZmbxYNIjky0ZUutKiKl77cRcOQC/MyUX1J3tC8fkTB5RMWQrjAaWzUMzpjRhHeZh2T5Nu84qGescnf7hY8rXK0txeYz8++7JjqYaSNbttZM2YIiY9FPC4o34YHjkxotb6LJ06lWZc1olMpimaDBRR+gxkmii5swkSkDsjlReLBoF8Ge4auGTNqFGIEACgZdfI4KpGOzH5omTKEmYW4wGVFsyvCPWe1kVuF2axaLW20WFPQGvSGUx6E5MnpMGtkB1LNZSs2W0qazYVPOCMLK/g4YBvXNaJTKYpmgwUUXrCfiKU3Fn8XNMzmoG8GJF8mbNdo7+rsDCrp8UiKSrHht4yJvXb75RMWWrigStdvKMU/bzpbO/E7QqGwwAQwsIhDAALhwGlowAw+7JjqYaSNbttZM0C9kCIzkrjAtw4E8ThRj/JZJqIZKAI0hOTaeJScmfxc13ujJugvBiJfJl9VNVfUV0tvKJRKIOjRwaS/1NelEwZOQnHAytjweMLFQMtHx+xRhkz8PF/xyUsZl12LNVQsmYJ+5kqWTNs2GEIcZWl8epPkcs0xQ+5nzfKPVFyZwlwXe4shrxYGMNwlM6Y5DuZfJl/6JKRW51XtUAWbB8xxHeEiJIpu2UyZQxh1aOLSi3tn+7Xe+PrkGZZdizVULJmCfuZMlkzj6XtpFe2aU5dLT9dxpVXyxat5JNEAblMU/yQ+3mD3BMldxaHm9HkzsjlxUIOkzEtb6FMJGRxOChADLkzf6dGIyiqrQwMtsX5DRZKpuwWyZQh3NJHltTxtc2nnCyZMDNbmCllkw8bsy87lmooWbOb9jN5sma4+VjvkYBywbriMhEStLo1pHpD5DJNCUDq5w1yT1xK7mxmcmfk8mK4s2N/t+yhugeW0/Gey2+8Mugllzvz6fs6g4W5o/3xfu2Okim7RTJljPT8sjQmY876Z+dEEjCz6sDP28eIr5h92bFUQwkBUFDEx20ld4aw5+5cX6H+/P1D8W0OUDJlSed2ioeblB1LNdRPZ1JQxMdtI0tFY7NEFeVVBY6elngPJFAyZcnntokHuGnZsVRDvc1QUHyhQHg1T6+rl7rVB5uPnbL/PQl5UTJlf69QsmYUFBQUFCmEWjSjoKCgoEgh/w8xX//G2ws78AAAAABJRU5ErkJggg==&quot; width=&quot;520&quot; height=&quot;32&quot; style=&quot;font-size: 11px&quot;&gt;&lt;/div&gt;&lt;div&gt;在源码这两句设定了两个节点间的传输时延为2ms，传播速率（带宽）为5Mbps。&lt;/div&gt;&lt;div&gt;通过wireshark抓包可以得知发送的数据包长度为1054bytes。&lt;/div&gt;&lt;img src=&quot;data:image/png;base64,iVBORw0KGgoAAAANSUhEUgAAApoAAAAXCAIAAAAk33iHAAAACXBIWXMAAA7EAAAOxAGVKw4bAAAAEXRFWHRTb2Z0d2FyZQBTbmlwYXN0ZV0Xzt0AAAg7SURBVHic7Z2/cqM+EMf3fk/AM+DMeMYlBW8ALlJR0FPaTYYmBU9AkcaThpT0FK5cxHoDCkrPZCbhGXxPcL9CAiQshPjjxL7bT3VjGyFW+12tViL368+fPwAAAL9//wYEQRAEQe6Q/366AwiCIAiCTAWncwRBEAS5e3A6vynKxDWMkPx0N26LMnEN43vNQsLbG4Z+35jVULdogsmgvr6VMT50i353N9LrmM5JaLS4NQsDwBUCfWeDnEHcpJR+3mkn9psrW/Bvj1T2cvFNdyoT10/t+MkRPzPkHlBxOcqCb7Sv4b+cd9QkhhrjG85TbKf+zH1Dff0M99J5lB7AFOkpVudBdubYOd2//AnKxDWMDTzH9vUbJKHhp8wcRQyRJTqIYKgLO5XJSzpTF/9RzO3xfD4ft+a33I2EVpQHGX+7MnGtaFWNchbkkdWWmmyUnV3tFS2vIaHhQ9PeXLPmvIYyt8citlN/poiH+kJ6QOk1rY2T3p0W20lo7b3ifNzOtWJTNFgmLykEGYsj5vY5gHz/LkkSZZTJJsqDLAtm6idyXcTBZp+973MIHquPnKfYhvRAhKt6Rpl6zcdX1cSOm5ck7d0K5vY5gFkmdNQX0gNKj2ec9IZP5yQ03KTkKhb8HYXCSP0FvYRe4SblZcVtcPnD2fVlQvQm0trMsAZbHgXkkIJ2vCGvUd6qHenQmLF6gDJx209TlXHYj60oB0h9mR0V5hWqUrq+Ix9lKBOXG14960u3iVhDvT3v9sOxBTXpeJkPK4DTZ/0sXx+5WFbTGOXy86TdCTVy83Y87zDfkFhqroCH+hroiM11Qq+GSk/Z+XYhWBDjaH1xX/mp9gOj9Np3GyO9UavzPLKqioVQEyDhBt7OXCGjeeo8sl6WRRHb+X6z+XguuJ5eqfwxF7wHlYlr+BDHNpfu8YN14dh+asdvQyswqW/tvUIsLl0uWmpHpnWecxHbQl2ySkEV5i0Tty5yam+otMtf4njlkWV9PNeVsY1OOsXJlfL1kcPqwYS6aFbIt1S6/XCkR5FDCra3bo+X8xTbOavYsd09blB1RlkZdS5ilAKZbwB0GqrHNzQcwFx7113AoL7akNAw/FNcsKve4L2ZYjsDLJUee64ihvq5lJ1XM0JfJOS7PqBogtK7uOEI6Smmcy6luFhoBRm7v7n27DoeOzsuA3ceA0GUwTP9LgfvyTEfVlA91gt/9mG28sf8G65l4lp7rzjv1tyHwiaNnfqcoWjx6Hl4D+y4YP3mreE8CvGGHLQaV5p3iDNXkNco5ypizi4LIH1pvMOOC/Zl2wGkLJaVCJolefl50u2WzA/He1T5eQKWR4iY2yMNkYZhRauMdyv1KFcJuCLqkNCXBjI5ct8Yi44DCAq/JqivukXgN5DN7bZRmyLAcs81Ww42UF/0q8H5FaD0pAyXnu5ROHFe5Gpj5vbIfcnXD8RKS9N1cdC+PnLII6u+yopy/d5/H++hYe29QpUemNu32K4jAtvTGXOCkDMQX2yiieorK2kcUn4UOlGal6W+l9laN+SQtrxwsRTWUjJJKjAfVvTq8n2fD9gzpUj9cJpHSSVWJq7BUvMsSH2+lqke5Xo2Kry9JbEyCQ0/hQERsMM3RqLtAL1p2VRQX3yL3XfuDrBz+wbAYH2V7/t8aADgQOnJGCS9OY/C8QdUB1VaxDP0+lWpb2GxtCGPImgSw87Eqqk5jN3Uk1L5EZdzk0P7dQ4F3ealJYxiRNCZjcWSJqBfHxBnMezfS67WPprxHiVRDwscdPid3TkLgIV9/VGWnfAqE9dPuaR/DBPtpOsAV3xLEPUloNrpHR1gZ+cqERulJ2OQ9GaczskhBa2MVmCxvNWzhQxz7dnCc5Wfp44KDTmkbJTpeZ4mhfXTavNi2LkAse5MTzseCJBDqlll1DEv51ivfb1rrcWhbzXRCwvR5HDy1s7aAyq7KdPHeI/qSLrb08tiadOfTRplElpRDuJrOYMYsCfRg9IBJi65+m+O+hJ+/LCCjhYHBNjO2nXvRf10P3JbP+SQ6t4bpTeL9GaczmtTA1SlDA1oSjzXy60NA0+2KxBfGaD5okzrJPTrFy24Lb86kaYZ7ZA09vJezmMAqW/46aWq5XFA37x6G33t9yfoYZQpq6TF0s73m5eTtzbBXHsQbV5Ok6aPCR7V2j9tegic2shrlNP5ZsAoU+eoh5LKo96ZHEG3H0pQzBENcgdoHzyvqN9T0e9yV+dQXzx0Y5ZrsUwS+m/tAFsmm9bSVdX5atvb1dyVUjwyrx/tGeDy0gaU3rCV0ozTubl9qyoHhkGPsetdRl+Z587daSVY3MYNu3hSbFE16OzYvo3BzmPUnsC/N+JDNrnoxKRS70qt2l7nPMU2gHQCdXaCHZkRFeYVXnox/JNe6Yk3hv5Vikd+WEGeA12OmWvPzvOcP+k8fJTHeRR9uMcALvLkVnt+GmQ6ZyyF91AE56j+8IXQxd4+qnyjz1By39BwgM6QQs8w6qw3RWugvnr7uD3yCjM2sK5eyVcHWPG5xHt1df6t+tTaezNEbGfHjq3R4dJskF6K0hNvOmI2h1/4H6TeF+z873f9jbR/j2qD8pbOb/wU1UuJUluQ0PDTaduPN8h96ks5UHcDSq9h3Ije6V+F+1choRXBqDdBEE1YNv0TxwJvDOpshTyg0GXOmPfEbhnU10+C0qtQSk8BTuf3ASsfTa9tI72Y22MW6JeR/1JI6Kfy00Jl4hqGFUFc/D3rKNTXTYDSA1BJrw8stiMIgiDI3YOrcwRBEAS5e3A6RxAEQZC7B6dzBEEQBLl7cDpHEARBkLvnf/360fppMJv+AAAAAElFTkSuQmCC&quot; width=&quot;520&quot; height=&quot;18&quot;&gt;&lt;br&gt;因此可以通过下式计算得到总的传播时间为：&lt;br&gt;0.002s+1054*8/5*10^6s=0.0036864s，四舍五入得&lt;span style=&quot;color: rgb(17 , 17 , 17) ; font-family: &amp;#34;microsoft yahei&amp;#34; , &amp;#34;arial&amp;#34; , &amp;#34;helvetica&amp;#34; , sans-serif ; background-color: rgb(255 , 255 , 255)&quot;&gt;&lt;font style=&quot;font-size: 12px&quot;&gt;τ=0.003686s。&lt;br&gt;又设定了2s时开始仿真，因此node1收到数据包时间为2.003686s，node1立刻将数据包返回给node0，于是node0收到echo数据包时间为2.007372s。&lt;br&gt;&lt;/font&gt;&lt;/span&gt;" style="text;html=1;strokeColor=none;fillColor=none;spacing=5;spacingTop=-20;whiteSpace=wrap;overflow=hidden;rounded=0;" vertex="1" parent="1">
          <mxGeometry x="60" y="390" width="605" height="240" as="geometry" />
        </mxCell>
      </root>
    </mxGraphModel>
  </diagram>
</mxfile>
